<?xml version="1.0" encoding="utf-8"?>
<!-- Generator: Adobe Illustrator 17.0.0, SVG Export Plug-In . SVG Version: 6.00 Build 0)  -->
<!DOCTYPE svg PUBLIC "-//W3C//DTD SVG 1.1//EN" "http://www.w3.org/Graphics/SVG/1.1/DTD/svg11.dtd">
<svg version="1.1" id="logo_1_" xmlns="http://www.w3.org/2000/svg" xmlns:xlink="http://www.w3.org/1999/xlink" x="0px" y="0px"
	 width="124px" height="43.002px" viewBox="0 0 124 43.002" enable-background="new 0 0 124 43.002" xml:space="preserve">
<path id="logo" fill="#FFFFFF" d="M67.102,0.085h-0.648v8.548h0.648V0.085z M101.412,12.344l-3.112,9.16h0.022l-2.574,7.579
	l-0.667-1.99l5.188-14.718h-1.516l-4.331,12.749l-1.213-3.62h0.003l-2.801-8.361c0.018-0.025,0.032-0.052,0.043-0.083l0.082-0.224
	c0.052-0.143,0.007-0.299-0.103-0.393l0.017-0.049c0.146,0,0.284-0.09,0.337-0.234l0.082-0.224c0.056-0.152,0.001-0.318-0.123-0.41
	l0.042-0.127c0.079-0.039,0.144-0.108,0.177-0.197l0.082-0.224c0.022-0.06,0.027-0.122,0.017-0.181l0.024,0.009l0.865-3.033
	l-0.167-0.061l0.323-1.016L91.927,6.63c0.023-0.018,0.042-0.043,0.052-0.072l0.038-0.103c0.031-0.085-0.013-0.18-0.098-0.211
	l-0.075-0.027c0.105-0.318,0.162-0.529,0.143-0.536c-0.02-0.007-0.112,0.191-0.239,0.501l-0.031-0.011
	c0.153-0.446,0.246-0.763,0.222-0.772c-0.024-0.009-0.159,0.293-0.33,0.732l-0.013-0.005c0.203-0.57,0.335-1.004,0.307-1.015
	s-0.209,0.407-0.423,0.972l-0.016-0.006l0.003-0.009c0.255-0.696,0.436-1.269,0.403-1.281c-0.033-0.012-0.266,0.542-0.522,1.238
	l-0.003,0.009l-0.02-0.007c0.032-0.084,0.064-0.171,0.097-0.26c0.255-0.696,0.436-1.269,0.403-1.281
	c-0.033-0.012-0.266,0.542-0.522,1.238c-0.033,0.089-0.064,0.176-0.094,0.26l-0.013-0.005c0.06-0.154,0.125-0.326,0.192-0.507
	c0.255-0.696,0.436-1.269,0.403-1.281c-0.033-0.012-0.266,0.542-0.522,1.238c-0.066,0.181-0.128,0.354-0.182,0.51L91.06,5.93
	c0.087-0.213,0.193-0.485,0.302-0.783c0.255-0.696,0.436-1.269,0.403-1.281c-0.033-0.012-0.266,0.542-0.522,1.238
	c-0.109,0.298-0.205,0.574-0.276,0.793l-0.045-0.016c-0.085-0.031-0.181,0.013-0.212,0.098l-0.038,0.103
	c-0.011,0.03-0.013,0.06-0.007,0.089L90.5,6.109l-0.408,0.985l-0.173-0.063l-1.273,2.844c-0.062,0.041-0.113,0.101-0.14,0.176
	l-0.082,0.224c-0.041,0.111-0.022,0.23,0.04,0.322l-0.03,0.074c-0.17-0.033-0.345,0.061-0.406,0.227l-0.082,0.224
	c-0.059,0.16,0.006,0.336,0.144,0.424L88.08,11.57c-0.164-0.023-0.328,0.07-0.387,0.231l-0.082,0.224
	c-0.058,0.158,0.004,0.331,0.139,0.421l-0.017,0.046c-0.068,0.002-0.134,0.023-0.191,0.06l-0.059-0.176h-0.785l-4.289,12.743
	L78.09,12.344h-1.491l0.013,0.038h-0.004l5.141,14.7l-0.671,1.994l-2.554-7.554h-1.386l3.208,9.174h1.379l-0.263,1.122
	c-1.616,3.664-3.895,9.43-4.036,9.816c-0.204,0.555-0.006,1.141,0.443,1.334h0l0.002,0.001l0,0c0.467,0.141,0.998-0.179,1.202-0.734
	c0.143-0.389,2.169-6.355,3.302-10.191l0.697-1.379h1.451l2.928-8.613l0.961-2.997l0.981,3.082l2.902,8.56h1.516l0.875-2.481
	l-0.288,0.818l0.566,1.669h1.516l3.242-9.199h-0.022l3.229-9.16H101.412z M83.736,29.045l-0.009-0.028l0.121-0.305L83.736,29.045z
	 M93.079,29.077l-4.027-12.021l0.699-2.179l2.109,6.627h-0.002l0.203,0.639l1.685,4.971L93.079,29.077z M44.896,8.012h-4.82V0.085
	h-0.661v8.548h5.481V8.012z M120.73,2.997h0.108c0.123,0,0.213,0.01,0.27,0.029c0.057,0.02,0.11,0.056,0.16,0.109
	c0.051,0.053,0.145,0.182,0.282,0.386l0.383,0.575h0.638l-0.322-0.514c-0.127-0.205-0.228-0.348-0.302-0.428
	c-0.074-0.08-0.169-0.154-0.284-0.221c0.231-0.034,0.405-0.115,0.521-0.243c0.116-0.129,0.174-0.292,0.174-0.49
	c0-0.156-0.039-0.293-0.116-0.415c-0.077-0.121-0.179-0.205-0.307-0.252c-0.128-0.047-0.333-0.071-0.616-0.071h-1.123v2.633h0.535
	V2.997z M120.73,1.909h0.416c0.216,0,0.346,0.003,0.389,0.009c0.086,0.014,0.153,0.048,0.2,0.103
	c0.047,0.055,0.071,0.126,0.071,0.215c0,0.079-0.018,0.145-0.054,0.198c-0.036,0.053-0.086,0.09-0.15,0.112
	c-0.064,0.022-0.223,0.032-0.479,0.032h-0.395V1.909z M44.919,18.077c-0.026-2.85-2.039-5.695-6.013-5.695h-8.053v18.269h1.412
	v-6.906h4.993l6.327,6.906h1.856l-6.457-6.984C42.985,23.667,44.945,21.057,44.919,18.077z M32.266,22.417v-8.731h6.641
	c3.032,0,4.496,2.22,4.47,4.365c-0.026,2.563-1.438,4.365-4.628,4.365H32.266z M116.806,20.592c-3.086-0.573-5.595-1.121-5.595-3.44
	c0-2.92,3.399-3.701,5.543-3.701c2.065,0.026,4.21,0.338,5.542,2.475l1.151-0.678c-1.804-2.683-4.079-3.101-6.693-3.101
	c-3.006,0-7.033,1.198-6.955,5.056c0,3.362,3.425,4.039,6.771,4.691c3.007,0.573,6.04,1.172,6.014,3.909
	c0,3.232-3.581,3.857-5.83,3.857s-5.125-1.094-6.249-3.31l-1.255,0.625c1.412,2.789,4.654,3.962,7.504,3.962
	c3.059,0,7.216-0.99,7.242-5.108C123.996,21.896,120.335,21.269,116.806,20.592z M121.248,5.59c1.52,0,2.752-1.228,2.752-2.743
	s-1.232-2.743-2.752-2.743s-2.752,1.228-2.752,2.743S119.728,5.59,121.248,5.59z M121.248,0.553c1.27,0,2.3,1.026,2.3,2.293
	s-1.03,2.293-2.3,2.293s-2.3-1.026-2.3-2.293S119.978,0.553,121.248,0.553z M27.285,0.085h-0.722l-3.842,8.548h0.71l0.93-2.098
	h5.114l0.942,2.098h0.71L27.285,0.085z M24.617,5.927l2.3-5.205l2.3,5.205H24.617z M14.958,6.402c0-0.988-0.612-1.854-1.688-2.146
	c0.857-0.268,1.395-0.953,1.395-1.835c0-1.628-1.37-2.335-2.814-2.335H8.339v8.548h3.511C13.319,8.634,14.958,8.158,14.958,6.402z
	 M9,0.646h2.851c1.064,0,2.19,0.526,2.19,1.774c0,1.226-1.077,1.543-2.104,1.543H9V0.646z M9,4.585h2.936
	c1.15,0,2.361,0.476,2.373,1.805c0,1.354-1.383,1.61-2.459,1.61H9V4.585z M18.814,21.295c1.83-0.573,2.98-2.037,2.98-3.922
	c0-0.548-0.073-1.048-0.208-1.501l-0.061-0.187c-0.792-2.284-3.214-3.302-5.745-3.302h-4.002v-0.018H0v1.234h8.277v1.039H2.386
	v1.234h5.891v14.779h7.503c3.138,0,6.641-1.016,6.641-4.769C22.421,23.771,21.115,21.921,18.814,21.295z M9.689,13.599h2.089v-0.017
	h4.002c1.232,0,2.503,0.329,3.408,1.056H9.689V13.599z M9.689,15.872h10.466c0.194,0.433,0.305,0.932,0.305,1.501
	c0,2.62-2.301,3.297-4.496,3.297H9.689V15.872z M15.78,29.296H9.689v-7.296h6.275c2.458,0,5.045,1.016,5.071,3.857
	C21.035,28.749,18.081,29.296,15.78,29.296z M54.372,8.634h0.661V0.695h3.095V0.11h-6.851v0.585h3.095V8.634z M61.273,12.122
	c-6.17,0-9.229,4.482-9.229,9.382c0,4.821,3.085,9.46,9.229,9.46s9.204-4.613,9.23-9.408C70.529,16.63,67.444,12.122,61.273,12.122z
	 M61.273,29.661c-5.203,0-7.817-4.014-7.843-8.131c-0.026-4.3,2.588-8.105,7.843-8.105s7.87,3.883,7.87,8.105
	C69.144,25.647,66.502,29.661,61.273,29.661z M80.004,8.731c1.126,0,2.263-0.427,3.12-1.28l-0.44-0.415
	c-0.734,0.72-1.713,1.085-2.679,1.085c-2.471,0-3.744-1.732-3.768-3.732c-0.012-2.049,1.272-3.805,3.768-3.805
	c0.967,0,1.933,0.354,2.667,1.085l0.453-0.39C82.267,0.427,81.129,0,80.004,0c-2.936,0-4.429,2.134-4.404,4.415
	C75.612,6.719,77.116,8.731,80.004,8.731z"/>
</svg>
