<?xml version="1.0" encoding="utf-8"?>
<!-- Generator: Adobe Illustrator 17.0.0, SVG Export Plug-In . SVG Version: 6.00 Build 0)  -->
<!DOCTYPE svg PUBLIC "-//W3C//DTD SVG 1.1//EN" "http://www.w3.org/Graphics/SVG/1.1/DTD/svg11.dtd">
<svg version="1.1" id="Layer_3" xmlns="http://www.w3.org/2000/svg" xmlns:xlink="http://www.w3.org/1999/xlink" x="0px" y="0px"
	 width="740.312px" height="103.986px" viewBox="0 0 740.312 103.986" enable-background="new 0 0 740.312 103.986"
	 xml:space="preserve">
<path fill="#FFFFFF" d="M263.611,54.633V0.539h-4.087v54.094C259.524,54.633,263.611,54.633,263.611,54.633z M213.031,54.633h4.167
	V4.398h19.523V0.696h-43.21v3.702h19.52L213.031,54.633L213.031,54.633z M148.407,0.539v54.094h34.568v-3.936h-30.404V0.539H148.407
	z M105.494,9.221l2.085-4.734l14.509,32.938h-3.961L105.494,9.221z M93.073,37.424l10.344-23.488l10.347,23.488H93.073z
	 M101.38,9.31L88.752,37.503h-3.968L99.29,4.566L101.38,9.31z M134.124,54.554L109.895,0.46h-4.552l-1.886,4.212l-1.851-4.133
	h-4.552L72.825,54.633H77.3l5.864-13.271h3.859l-5.909,13.192h4.475l5.829-13.192h24.001l5.941,13.271h4.475l-5.979-13.35h3.853
	l5.941,13.271C129.65,54.554,134.124,54.554,134.124,54.554z M716.325,9.653c-5.326-7.945-12.039-9.18-19.754-9.18
	c-8.873,0-20.758,3.548-20.527,14.971c0,9.954,10.108,11.959,19.985,13.89c8.876,1.697,17.826,3.471,17.749,11.574
	c0,9.569-10.57,11.42-17.207,11.42c-6.637,0-15.125-3.24-18.442-9.8l-3.705,1.851c4.167,8.257,13.736,11.731,22.147,11.731
	c9.027,0,21.297-2.932,21.374-15.125c0-11.651-10.804-13.505-21.22-15.51c-9.108-1.697-16.514-3.32-16.514-10.185
	c0-8.645,10.031-10.958,16.36-10.958c6.095,0.077,12.424,1.001,16.357,7.33L716.325,9.653z M532.826,4.255
	c15.51,0,23.228,11.497,23.228,23.998c0,12.189-7.795,24.075-23.228,24.075c-15.356,0-23.071-11.885-23.148-24.075
	C509.6,15.521,517.315,4.255,532.826,4.255z M532.826,0.396c-18.211,0-27.238,13.271-27.238,27.78
	c0,14.275,9.104,28.011,27.238,28.011c18.134,0,27.164-13.659,27.241-27.857C560.143,13.743,551.036,0.396,532.826,0.396z
	 M447.213,5.025h19.6c8.95,0,13.271,6.574,13.194,12.926c-0.077,7.588-4.244,12.926-13.659,12.926h-19.135V5.025z M467.044,34.579
	c11.805,0,17.592-7.728,17.515-16.551c-0.077-8.438-6.018-16.862-17.746-16.862c-7.949,0-15.821,0-23.767,0V55.26h4.167V34.81
	h14.737l18.673,20.45h5.479L467.044,34.579z M614.809,15.004l2.062-6.452l6.225,19.623h-0.007l0.6,1.891l4.973,14.719l-1.968,5.811
	L614.809,15.004z M595.206,38.879L582.458,1.052h-4.401l0.04,0.114h-0.013l15.172,43.527l-1.981,5.905l-7.538-22.368h-4.09
	l9.469,27.164h4.475l1.679-4.956l1.695,4.862h4.475l8.642-25.504l2.837-8.876l2.896,9.127l8.565,25.347h4.475l2.534-7.212
	l-0.804,2.288l1.67,4.943h4.475l9.569-27.238h-0.063l9.529-27.124h-4.475l-9.184,27.124h0.063l-7.598,22.442l-1.968-5.893
	l15.312-43.579h-4.475l-12.783,37.75l-3.581-10.72h0.01L618.03,1.052h-2.316l-2.788,8.312l-2.744-8.218h-2.316L595.206,38.879z
	 M599.123,50.504l-1.933-5.735l5.042-14.88l6.791-21.243l2.014,6.346L599.123,50.504z M23.855,96.591l5.941-13.487l5.941,13.487
	H23.855z M40.666,103.606l-9.922-22.151H28.88l-9.922,22.151h1.833l2.401-5.435H36.4l2.433,5.435H40.666z M63.22,99.467
	c-1.896,1.864-4.424,2.812-6.92,2.812c-6.383,0-9.669-4.487-9.732-9.67C46.536,87.3,49.854,82.75,56.3,82.75
	c2.496,0,4.993,0.917,6.889,2.812l1.169-1.011c-2.212-2.212-5.151-3.318-8.058-3.318c-7.584,0-11.439,5.53-11.376,11.439
	c0.032,5.972,3.918,11.186,11.376,11.186c2.907,0,5.846-1.106,8.058-3.318L63.22,99.467z M73.893,96.591l5.941-13.487l5.941,13.487
	H73.893z M90.704,103.606l-9.922-22.151h-1.864l-9.922,22.151h1.833l2.402-5.435H86.44l2.433,5.435H90.704z M105.453,83.066
	c6.383,0,9.417,4.587,9.511,9.211c0.095,4.75-2.939,9.685-9.511,9.685H99.67V83.066H105.453z M105.453,81.455
	c-2.496,0-4.993,0-7.489,0v22.151c2.497,0,4.993,0,7.489,0c7.742,0,11.344-5.693,11.218-11.328
	C116.544,86.832,112.942,81.455,105.453,81.455z M126.111,83.066h13.588v-1.612h-15.263v22.151h15.642v-1.643h-13.967v-8.721h12.956
	v-1.548h-12.956V83.066z M167.055,103.606h1.675V81.455h-2.086l-8.374,12.908l-8.469-12.908c-0.822,0-1.201,0-2.022,0v22.151h1.706
	V83.925l8.532,12.972h0.569l8.468-12.972L167.055,103.606L167.055,103.606z M184.238,103.606h1.706v-8.858l8.658-13.261v-0.032
	h-1.991L185.09,93.1l-7.489-11.645h-1.991v0.032l8.627,13.261L184.238,103.606L184.238,103.606z M245.699,103.606h1.707V83.035
	h7.994v-1.517h-17.695v1.517h7.995v20.571H245.699z M264.271,83.035h8.026c3.665,0,5.435,2.691,5.403,5.293
	c-0.032,3.107-1.738,5.293-5.593,5.293h-7.837L264.271,83.035L264.271,83.035z M272.392,95.137c4.835,0,7.205-3.165,7.173-6.778
	c-0.031-3.455-2.465-6.905-7.268-6.905c-3.255,0-6.478,0-9.733,0v22.151h1.706v-8.374h6.036l7.647,8.374h2.244L272.392,95.137z
	 M288.626,83.066h13.588v-1.612h-15.263v22.151h15.642v-1.643h-13.967v-8.721h12.956v-1.548h-12.956V83.066z M312.887,96.591
	l5.941-13.487l5.941,13.487H312.887z M329.698,103.606l-9.922-22.151h-1.864l-9.922,22.151h1.833l2.401-5.435h13.209l2.433,5.435
	H329.698z M339.106,103.606h1.706V83.035h7.995v-1.517h-17.696v1.517h7.995L339.106,103.606L339.106,103.606z M375.248,103.606
	h1.675V81.455h-2.086l-8.374,12.908l-8.469-12.908c-0.821,0-1.201,0-2.022,0v22.151h1.707V83.925l8.532,12.972h0.569l8.469-12.972
	v19.681H375.248z M387.374,83.066h13.588v-1.612h-15.263v22.151h15.642v-1.643h-13.967v-8.721h12.956v-1.548h-12.956V83.066z
	 M409.707,81.455v22.151h1.706V85.315l14.915,18.291h0.664V81.455h-1.675v18.323l-14.883-18.323H409.707z M442.12,103.606h1.707
	V83.035h7.995v-1.517h-17.696v1.517h7.995L442.12,103.606L442.12,103.606z M474.691,84.931c-2.18-3.255-4.93-3.76-8.089-3.76
	c-3.634,0-8.5,1.454-8.406,6.13c0,4.076,4.14,4.898,8.184,5.688c3.634,0.695,7.299,1.422,7.268,4.74
	c0,3.918-4.329,4.677-7.047,4.677s-6.194-1.327-7.552-4.013l-1.517,0.759c1.706,3.381,5.625,4.803,9.069,4.803
	c3.697,0,8.721-1.201,8.753-6.193c0-4.772-4.424-5.53-8.69-6.352c-3.729-0.695-6.762-1.359-6.762-4.171
	c0-3.539,4.108-4.487,6.699-4.487c2.496,0.032,5.087,0.411,6.699,3.002L474.691,84.931z M530.37,95.959
	c9.606,0,9.606-14.504,0-14.504c-3.223,0-6.478,0-9.701,0v22.151h1.706v-7.647H530.37z M530.37,83.035
	c7.363,0,7.363,11.376,0,11.376h-7.995V83.035H530.37z M546.983,83.035h8.026c3.666,0,5.435,2.691,5.403,5.293
	c-0.032,3.107-1.738,5.293-5.593,5.293h-7.837L546.983,83.035L546.983,83.035z M555.104,95.137c4.835,0,7.205-3.165,7.173-6.778
	c-0.031-3.455-2.465-6.905-7.268-6.905c-3.255,0-6.478,0-9.733,0v22.151h1.706v-8.374h6.036l7.647,8.374h2.244L555.104,95.137z
	 M579.87,82.719c6.352,0,9.511,4.708,9.511,9.827c0,4.993-3.192,9.859-9.511,9.859c-6.288,0-9.448-4.866-9.48-9.859
	C570.358,87.332,573.518,82.719,579.87,82.719z M579.87,81.139c-7.457,0-11.155,5.435-11.155,11.376
	c0,5.846,3.729,11.471,11.155,11.471s11.123-5.593,11.155-11.407C591.056,86.606,587.328,81.139,579.87,81.139z M606.311,83.066
	c6.383,0,9.417,4.587,9.511,9.211c0.095,4.75-2.939,9.685-9.511,9.685h-5.783V83.066H606.311z M606.311,81.455
	c-2.496,0-4.993,0-7.489,0v22.151c2.497,0,4.993,0,7.489,0c7.742,0,11.344-5.693,11.218-11.328
	C617.402,86.832,613.8,81.455,606.311,81.455z M640.557,81.455v13.746c0,9.48-13.588,9.512-13.588,0V81.455h-1.675v13.746
	c0,11.597,16.938,11.566,16.938,0V81.455H640.557z M667.914,99.467c-1.896,1.864-4.424,2.812-6.92,2.812
	c-6.383,0-9.669-4.487-9.732-9.67c-0.032-5.309,3.286-9.859,9.732-9.859c2.497,0,4.993,0.917,6.889,2.812l1.169-1.011
	c-2.212-2.212-5.151-3.318-8.058-3.318c-7.584,0-11.439,5.53-11.376,11.439c0.031,5.972,3.918,11.186,11.376,11.186
	c2.907,0,5.846-1.106,8.058-3.318L667.914,99.467z M682.915,103.606h1.706V83.035h7.995v-1.517h-17.695v1.517h7.995L682.915,103.606
	L682.915,103.606z M715.487,84.931c-2.18-3.255-4.93-3.76-8.09-3.76c-3.634,0-8.5,1.454-8.406,6.13c0,4.076,4.14,4.898,8.184,5.688
	c3.634,0.695,7.299,1.422,7.268,4.74c0,3.918-4.329,4.677-7.047,4.677s-6.194-1.327-7.552-4.013l-1.517,0.759
	c1.706,3.381,5.625,4.803,9.069,4.803c3.697,0,8.721-1.201,8.753-6.193c0-4.772-4.424-5.53-8.69-6.352
	c-3.729-0.695-6.762-1.359-6.762-4.171c0-3.539,4.108-4.487,6.699-4.487c2.496,0.032,5.087,0.411,6.699,3.002L715.487,84.931z
	 M215.806,85.872c1.732,0,3.136,1.404,3.136,3.136s-1.404,3.136-3.136,3.136s-3.136-1.404-3.136-3.136
	S214.074,85.872,215.806,85.872z M497.493,85.777c1.732,0,3.136,1.404,3.136,3.136s-1.404,3.136-3.136,3.136
	s-3.136-1.404-3.136-3.136C494.357,87.181,495.761,85.777,497.493,85.777z M21.307,3.936h17.977c6.714,0,13.813,3.33,13.813,11.226
	c0,7.758-6.791,9.763-13.271,9.763H21.307V3.936z M21.307,28.861c6.48,0,12.036,0,18.519,0c7.253,0,14.891,3.009,14.968,11.42
	c0,8.565-8.719,10.185-15.51,10.185H21.307V28.861z M39.284,0.385c-7.869,0-14.352,0-22.144,0v54.094c7.869,0,14.275,0,22.144,0
	c9.261,0,19.6-3.009,19.6-14.121c0-6.252-3.856-11.728-10.647-13.582c5.402-1.697,8.796-6.031,8.796-11.614
	C57.033,4.863,48.391,0.385,39.284,0.385z M0,67.247h734.63v1.547H0V67.247z M332.17,44.525c-4.629,4.552-10.8,6.868-16.899,6.868
	c-15.587,0-23.613-10.958-23.767-23.613c-0.077-12.963,8.026-24.075,23.767-24.075c6.099,0,12.193,2.236,16.822,6.868l2.855-2.47
	C329.547,2.701,322.371,0,315.271,0c-18.519,0-27.934,13.505-27.78,27.934c0.081,14.583,9.569,27.315,27.78,27.315
	c7.099,0,14.275-2.698,19.677-8.1L332.17,44.525z M407.51,27.57c5.402-1.697,8.796-6.031,8.796-11.614
	c0-10.299-8.642-14.777-17.749-14.777h-11.812V1.125h-34.762V4.78h24.43v3.076h-17.387v3.655h17.387v43.762
	c7.869,0,14.275,0,22.144,0c9.261,0,19.6-3.009,19.6-14.121C418.157,34.9,414.301,29.424,407.51,27.57z M380.581,4.781h6.165V4.73
	h11.812c3.635,0,7.383,0.977,10.056,3.126h-28.033V4.781z M380.58,11.511h30.891c0.575,1.281,0.899,2.759,0.899,4.445
	c0,7.758-6.791,9.763-13.271,9.763H380.58V11.511z M398.558,51.982h-17.977V30.377c6.479,0,12.036,0,18.519,0
	c7.253,0,14.891,3.009,14.968,11.42C414.068,50.362,405.349,51.982,398.558,51.982z M735.742,6.814
	c-0.166-0.18-0.376-0.344-0.632-0.493c0.514-0.075,0.9-0.256,1.159-0.543c0.258-0.288,0.387-0.652,0.387-1.094
	c0-0.347-0.086-0.655-0.257-0.926c-0.171-0.269-0.398-0.457-0.684-0.562c-0.285-0.106-0.742-0.159-1.37-0.159h-2.5v5.878h1.19V6.463
	h0.241c0.274,0,0.474,0.021,0.601,0.065c0.126,0.043,0.245,0.126,0.357,0.243c0.113,0.119,0.323,0.406,0.628,0.862l0.851,1.283
	h1.419l-0.717-1.147C736.133,7.312,735.909,6.993,735.742,6.814z M733.914,5.524h-0.878h-0.001V4.029h0.927
	c0.48,0,0.769,0.007,0.866,0.021c0.192,0.032,0.341,0.108,0.446,0.23c0.105,0.123,0.159,0.282,0.159,0.48
	c0,0.177-0.04,0.324-0.121,0.442c-0.079,0.118-0.191,0.201-0.332,0.249C734.838,5.499,734.483,5.524,733.914,5.524z M734.188,0
	c-3.381,0-6.123,2.741-6.124,6.124c0,3.382,2.742,6.124,6.124,6.124s6.124-2.742,6.124-6.124C740.312,2.742,737.57,0,734.188,0z
	 M734.188,11.242c-2.827,0-5.118-2.292-5.118-5.119c0-2.827,2.291-5.118,5.118-5.118c2.827,0,5.119,2.292,5.119,5.118
	C739.307,8.95,737.015,11.242,734.188,11.242z"/>
</svg>
